<?xml version="1.0" standalone="no"?><!DOCTYPE svg PUBLIC "-//W3C//DTD SVG 1.1//EN" "http://www.w3.org/Graphics/SVG/1.1/DTD/svg11.dtd"><svg t="1757912570382" class="icon" viewBox="0 0 1024 1024" version="1.1" xmlns="http://www.w3.org/2000/svg" p-id="4664" xmlns:xlink="http://www.w3.org/1999/xlink" width="48" height="48"><path d="M911.984876 511.989901c0 287.092902-112.902043 400.025181-399.994945 400.025181-287.062666 0-399.994945-112.932279-399.994945-400.025181 0-287.062666 112.932279-399.994945 400.025182-399.994945 287.062666 0 399.964709 112.932279 399.964708 400.025181z" fill="#1A1A1A" p-id="4665"></path><path d="M530.192135 343.33227v247.090384a55.42299 55.42299 0 0 1-55.937005 55.997478 55.42299 55.42299 0 0 1-55.937006-55.997478c0-31.324723 24.642519-55.937006 55.937006-55.937006v-71.962202a128.44346 128.44346 0 0 0-127.899208 127.899208c0 70.238737 57.690706 127.989916 127.899208 127.989916 70.238737 0 127.989916-57.751179 127.989916-127.989916v-151.63464c26.245038 10.824567 53.82047 17.718424 78.765351 17.718425v-71.992438c-20.439684 0-44.507715-4.626142-59.172281-12.457323-14.63433-7.861417-19.59307-12.910866-19.59307-28.724408z" fill="#FF0000" fill-opacity=".6" p-id="4666"></path><path d="M516.5556 315.968491v247.120621c0 31.324723-24.672755 55.937006-55.997478 55.937005a55.362518 55.362518 0 0 1-55.937005-55.937005c0-31.324723 24.612282-55.937006 55.937005-55.937006v-72.022674c-70.208501 0-127.899208 57.751179-127.899207 127.95968a128.44346 128.44346 0 0 0 127.899207 127.899207c70.238737 0 127.989916-57.66047 127.989917-127.899207v-151.725349c26.245038 10.885039 53.82047 17.778897 78.765351 17.778897v-72.022674c-20.439684 0-44.507715-4.626142-59.172281-12.487559-14.664566-7.831181-19.59307-12.880629-19.59307-28.694172z" fill="#028080" fill-opacity=".486" p-id="4667"></path><path d="M516.5556 329.635263v247.150856c0 31.324723-24.672755 55.937006-55.997478 55.937006a55.362518 55.362518 0 0 1-55.937005-55.937006c0-31.324723 24.612282-55.967242 55.937005-55.967242v-71.992438c-70.208501 0-127.899208 57.751179-127.899207 127.95968a128.44346 128.44346 0 0 0 127.899207 127.899208c70.238737 0 127.989916-57.66047 127.989917-127.899208V425.121243c26.245038 10.824567 53.82047 17.718424 78.765351 17.718425v-71.992439c-20.439684 0-44.507715-4.626142-59.172281-12.457322-14.664566-7.861417-19.59307-12.910866-19.59307-28.724408z" fill="#FFFFFF" p-id="4668"></path></svg>